<svg xmlns="http://www.w3.org/2000/svg" viewBox="0 0 48 48" fill="none">
  <!-- Back document -->
  <rect x="10" y="4" width="24" height="32" rx="2" fill="#94A3B8" stroke="#64748B" stroke-width="1.5"/>
  <rect x="14" y="10" width="12" height="2" rx="1" fill="#CBD5E1"/>
  <rect x="14" y="15" width="16" height="2" rx="1" fill="#CBD5E1"/>
  <rect x="14" y="20" width="10" height="2" rx="1" fill="#CBD5E1"/>

  <!-- Front document -->
  <rect x="16" y="12" width="24" height="32" rx="2" fill="#3B82F6" stroke="#2563EB" stroke-width="1.5"/>
  <rect x="20" y="18" width="12" height="2" rx="1" fill="#BFDBFE"/>
  <rect x="20" y="23" width="16" height="2" rx="1" fill="#BFDBFE"/>
  <rect x="20" y="28" width="10" height="2" rx="1" fill="#BFDBFE"/>
  <rect x="20" y="33" width="14" height="2" rx="1" fill="#BFDBFE"/>

  <!-- Bundle/merge arrow circle -->
  <circle cx="38" cy="38" r="9" fill="#10B981" stroke="#059669" stroke-width="1.5"/>
  <path d="M34 38h8M38 34v8M34 34l4 4-4 4" stroke="white" stroke-width="2" stroke-linecap="round" stroke-linejoin="round" fill="none"/>
</svg>
